<svg width="158" height="158" viewBox="0 0 158 158" fill="none" xmlns="http://www.w3.org/2000/svg">
<path d="M83.0002 58.7501C98.6252 58.7501 111.292 46.0835 111.292 30.4584C111.292 14.8334 98.6252 2.16675 83.0002 2.16675C67.3751 2.16675 54.7085 14.8334 54.7085 30.4584C54.7085 46.0835 67.3751 58.7501 83.0002 58.7501Z" stroke="black" stroke-width="4" stroke-linecap="round" stroke-linejoin="round"/>
<path d="M2.16675 151.708C2.16675 115.992 34.7385 87.0417 74.9167 87.0417M99.1667 104.017C99.1667 99.7043 127.458 91.0834 127.458 91.0834C127.458 91.0834 155.75 99.7043 155.75 104.017C155.75 138.504 127.458 155.75 127.458 155.75C127.458 155.75 99.1667 138.504 99.1667 104.017Z" stroke="black" stroke-width="4" stroke-linecap="round" stroke-linejoin="round"/>
</svg>
