<svg width="194" height="194" viewBox="0 0 194 194" fill="none" xmlns="http://www.w3.org/2000/svg">
<path d="M151.415 38.8C146.21 38.8 141.752 36.8988 138.043 33.0964C134.339 29.3005 132.488 24.735 132.488 19.4C132.488 14.065 134.339 9.4963 138.043 5.6939C141.752 1.89797 146.21 0 151.415 0C156.62 0 161.077 1.89797 164.786 5.6939C168.49 9.4963 170.341 14.065 170.341 19.4C170.341 24.735 168.49 29.3005 164.786 33.0964C161.077 36.8988 156.62 38.8 151.415 38.8ZM141.951 194V116.4C141.951 109.933 140.336 104.113 137.106 98.94C133.869 93.7667 129.728 89.725 124.68 86.815L132.961 61.8375C134.223 57.7958 136.551 54.5625 139.945 52.1375C143.333 49.7125 147.156 48.5 151.415 48.5C155.673 48.5 159.496 49.7125 162.884 52.1375C166.278 54.5625 168.607 57.7958 169.868 61.8375L194 135.8H170.341V194H141.951ZM99.3659 92.15C95.4228 92.15 92.0727 90.7338 89.3157 87.9014C86.5524 85.0755 85.1707 81.6417 85.1707 77.6C85.1707 73.5583 86.5524 70.1245 89.3157 67.2986C92.0727 64.4662 95.4228 63.05 99.3659 63.05C103.309 63.05 106.659 64.4662 109.416 67.2986C112.179 70.1245 113.561 73.5583 113.561 77.6C113.561 81.6417 112.179 85.0755 109.416 87.9014C106.659 90.7338 103.309 92.15 99.3659 92.15ZM33.1219 38.8C27.9171 38.8 23.463 36.8988 19.7596 33.0964C16.0499 29.3005 14.1951 24.735 14.1951 19.4C14.1951 14.065 16.0499 9.4963 19.7596 5.6939C23.463 1.89797 27.9171 0 33.1219 0C38.3268 0 42.7809 1.89797 46.4843 5.6939C50.194 9.4963 52.0488 14.065 52.0488 19.4C52.0488 24.735 50.194 29.3005 46.4843 33.0964C42.7809 36.8988 38.3268 38.8 33.1219 38.8ZM14.1951 194V126.1H0V67.9C0 62.565 1.85483 57.9963 5.56449 54.1939C9.26784 50.398 13.722 48.5 18.9268 48.5H47.3171C52.5219 48.5 56.9761 50.398 60.6794 54.1939C64.3891 57.9963 66.2439 62.565 66.2439 67.9V126.1H52.0488V194H14.1951ZM85.1707 194V155.2H75.7073V116.4C75.7073 112.358 77.089 108.925 79.8523 106.099C82.6093 103.266 85.9593 101.85 89.9024 101.85H108.829C112.772 101.85 116.122 103.266 118.879 106.099C121.643 108.925 123.024 112.358 123.024 116.4V155.2H113.561V194H85.1707Z" fill="black"/>
</svg>
