<svg width="194" height="194" viewBox="0 0 194 194" fill="none" xmlns="http://www.w3.org/2000/svg">
<g clip-path="url(#clip0_56_507)">
<path d="M172.445 43.1111H21.5556C18.6972 43.1111 15.9558 44.2466 13.9346 46.2678C11.9133 48.289 10.7778 51.0304 10.7778 53.8889V140.111C10.7778 142.97 11.9133 145.711 13.9346 147.732C15.9558 149.753 18.6972 150.889 21.5556 150.889H172.445C175.303 150.889 178.044 149.753 180.066 147.732C182.087 145.711 183.222 142.97 183.222 140.111V53.8889C183.222 51.0304 182.087 48.289 180.066 46.2678C178.044 44.2466 175.303 43.1111 172.445 43.1111ZM172.445 75.4444C166.928 74.9972 161.76 72.5676 157.897 68.605C154.033 64.6423 151.735 59.4147 151.428 53.8889H172.445V75.4444ZM172.445 84.1744V110.203C164.685 110.669 157.369 113.975 151.892 119.492C146.415 125.008 143.162 132.348 142.752 140.111H51.1406C50.7462 132.356 47.5133 125.018 42.0577 119.492C36.602 113.967 29.3048 110.642 21.5556 110.149V84.0666C29.3592 83.5948 36.7116 80.25 42.1947 74.6773C47.6778 69.1047 50.903 61.6991 51.2484 53.8889H142.859C143.202 61.6816 146.413 69.0729 151.873 74.643C157.334 80.2131 164.66 83.5692 172.445 84.0666V84.1744ZM42.5723 53.8889C42.2648 59.4147 39.9668 64.6423 36.1033 68.605C32.2397 72.5676 27.0719 74.9972 21.5556 75.4444V53.8889H42.5723ZM21.5556 118.879C27.02 119.317 32.1459 121.701 36.0024 125.597C39.8588 129.493 42.19 134.643 42.5723 140.111H21.5556V118.879ZM151.428 140.111C151.81 134.643 154.141 129.493 157.998 125.597C161.854 121.701 166.98 119.317 172.445 118.879V140.111H151.428Z" fill="black"/>
<path d="M97 58.4695C78.3006 58.4695 63.05 75.7678 63.05 97C63.05 118.232 78.3006 135.531 97 135.531C115.699 135.531 130.95 118.232 130.95 97C130.95 75.7678 115.699 58.4695 97 58.4695ZM97 126.854C83.0428 126.854 71.6723 113.436 71.6723 96.9461C71.6723 80.4561 83.0428 67.0378 97 67.0378C110.957 67.0378 122.328 80.4561 122.328 96.9461C122.328 113.436 110.957 126.908 97 126.908V126.854Z" fill="black"/>
</g>
<defs>
<clipPath id="clip0_56_507">
<rect width="194" height="194" fill="white"/>
</clipPath>
</defs>
</svg>
